<svg width="16" height="17" viewBox="0 0 16 17" fill="none" xmlns="http://www.w3.org/2000/svg">
<path opacity="0.4" d="M10.7932 1.83301H5.21318C2.78651 1.83301 1.33984 3.27967 1.33984 5.70634V11.2863C1.33984 13.713 2.78651 15.1597 5.21318 15.1597H10.7932C13.2198 15.1597 14.6665 13.713 14.6665 11.2863V5.70634C14.6665 3.27967 13.2198 1.83301 10.7932 1.83301Z" fill="#131313"/>
<path d="M9.27966 6.6868L9.31299 8.65347L11.0663 8.6268C11.193 8.6268 11.2863 8.74013 11.2663 8.86013L11.033 10.1335C11.013 10.2268 10.933 10.2935 10.8397 10.3001L9.33966 10.3268L9.41966 15.1601L7.41966 15.1935L7.33966 10.3601L6.20632 10.3801C6.09299 10.3801 6.00633 10.2935 6.00633 10.1801L5.98633 8.91347C5.98633 8.80013 6.07299 8.71347 6.18632 8.71347L7.31966 8.69347L7.28632 6.5268C7.26632 5.42013 8.14632 4.51346 9.25299 4.49346L11.053 4.4668C11.1663 4.4668 11.253 4.55347 11.253 4.6668L11.2797 6.2668C11.2797 6.38013 11.193 6.4668 11.0797 6.4668L9.47965 6.49346C9.36632 6.4868 9.27966 6.58013 9.27966 6.6868Z" fill="#292D32"/>
</svg>
