<svg width="16" height="16" viewBox="0 0 16 16" fill="none" xmlns="http://www.w3.org/2000/svg">
<g clip-path="url(#clip0_108_5984)">
<path d="M16 5.33333C16 5.27133 15.9913 5.20933 15.9747 5.15L15.1933 2.41733C14.7867 0.994 13.468 0 11.988 0H4.01133C2.53133 0 1.21333 0.994 0.806 2.41733L0.026 5.15C0.00933333 5.20933 0 5.27133 0 5.33333C0 6.008 0.252 6.62467 0.666667 7.09533V13.3333C0.666667 14.804 1.86267 16 3.33333 16H7.33333C8.804 16 10 14.804 10 13.3333V7.642C10.2507 7.49667 10.476 7.31133 10.6667 7.09533C11.1553 7.65 11.8707 8 12.6667 8H13.3333C13.5633 8 13.7867 7.97067 14 7.91533V15.3333C14 15.7013 14.298 16 14.6667 16C15.0353 16 15.3333 15.7013 15.3333 15.3333V7.09533C15.748 6.62533 16 6.008 16 5.33333ZM7.33333 14.6667H3.33333C2.598 14.6667 2 14.0687 2 13.3333V12H8.66667V13.3333C8.66667 14.0687 8.06867 14.6667 7.33333 14.6667ZM8.66667 10.6667H2V7.91533C2.21333 7.97067 2.43667 8 2.66667 8H3.33333C4.12933 8 4.844 7.64933 5.33333 7.09533C5.82267 7.65 6.53733 8 7.33333 8H8.66667V10.6667ZM12.6667 6.66667C11.9313 6.66667 11.3333 6.06867 11.3333 5.33333C11.3333 4.96533 11.0353 4.66667 10.6667 4.66667C10.298 4.66667 10 4.96533 10 5.33333C10 6.06867 9.402 6.66667 8.66667 6.66667H7.33333C6.598 6.66667 6 6.06867 6 5.33333C6 4.96533 5.70133 4.66667 5.33333 4.66667C4.96533 4.66667 4.66667 4.96533 4.66667 5.33333C4.66667 6.06867 4.06867 6.66667 3.33333 6.66667H2.66667C2.34 6.66667 2.04 6.548 1.808 6.35267C1.78867 6.33333 1.76867 6.31533 1.74733 6.298C1.51133 6.07333 1.35733 5.76333 1.336 5.418L2.088 2.784C2.332 1.93 3.12267 1.33333 4.01133 1.33333H4.66667V2.66667C4.66667 3.03467 4.96533 3.33333 5.33333 3.33333C5.70133 3.33333 6 3.03467 6 2.66667V1.33333H10V2.66667C10 3.03467 10.298 3.33333 10.6667 3.33333C11.0353 3.33333 11.3333 3.03467 11.3333 2.66667V1.33333H11.988C12.876 1.33333 13.6673 1.93 13.9113 2.784L14.664 5.418C14.6207 6.114 14.04 6.66733 13.3333 6.66733H12.6667V6.66667Z" fill="#818384"/>
</g>
<defs>
<clipPath id="clip0_108_5984">
<rect width="16" height="16" fill="white"/>
</clipPath>
</defs>
</svg>
