<svg width="24" height="24" viewBox="0 0 24 24" fill="none" xmlns="http://www.w3.org/2000/svg">
<g clip-path="url(#clip0_108_5428)">
<path d="M2.42 6.49C1.97 6.17 1.86 5.55 2.18 5.1C2.98 3.97 3.96 2.99 5.09 2.19C5.54 1.87 6.17 1.98 6.48 2.43C6.8 2.88 6.69 3.51 6.24 3.82C5.3 4.49 4.48 5.3 3.81 6.25C3.62 6.53 3.31 6.67 2.99 6.67C2.79 6.67 2.59 6.61 2.41 6.49H2.42ZM3.82 17.75C3.5 17.3 2.88 17.19 2.43 17.51C1.98 17.83 1.87 18.45 2.19 18.9C2.99 20.03 3.97 21.01 5.1 21.81C5.27 21.93 5.48 21.99 5.68 21.99C5.99 21.99 6.3 21.84 6.5 21.57C6.82 21.12 6.71 20.49 6.26 20.18C5.31 19.51 4.5 18.7 3.83 17.75H3.82ZM2 12C2 11.39 2.05 10.78 2.16 10.19C2.26 9.65 1.9 9.13 1.36 9.03C0.82 8.93 0.3 9.29 0.2 9.83C0.07 10.54 0 11.27 0 12C0 12.73 0.07 13.46 0.2 14.17C0.29 14.65 0.71 14.99 1.18 14.99C1.24 14.99 1.3 14.99 1.36 14.97C1.9 14.87 2.26 14.35 2.16 13.81C2.05 13.22 2 12.61 2 12ZM20.18 17.75C19.51 18.7 18.7 19.51 17.75 20.18C17.3 20.5 17.19 21.12 17.51 21.57C17.7 21.85 18.01 21.99 18.33 21.99C18.53 21.99 18.73 21.93 18.91 21.81C20.04 21.01 21.02 20.03 21.82 18.9C22.14 18.45 22.03 17.82 21.58 17.51C21.13 17.19 20.5 17.3 20.19 17.75H20.18ZM13.81 21.84C13.22 21.95 12.61 22 12 22C11.39 22 10.78 21.95 10.19 21.84C9.65 21.74 9.13 22.1 9.03 22.64C8.93 23.18 9.29 23.7 9.83 23.8C10.54 23.93 11.27 24 12 24C12.73 24 13.46 23.93 14.17 23.8C14.71 23.7 15.07 23.18 14.97 22.64C14.87 22.1 14.35 21.73 13.81 21.84ZM14.17 0.2C13.46 0.07 12.73 0 12 0C11.27 0 10.54 0.07 9.83 0.2C9.29 0.3 8.93 0.82 9.03 1.36C9.12 1.84 9.54 2.18 10.01 2.18C10.07 2.18 10.13 2.18 10.19 2.16C10.78 2.05 11.39 2 12 2C12.61 2 13.22 2.05 13.81 2.16C13.87 2.17 13.93 2.18 13.99 2.18C14.46 2.18 14.88 1.84 14.97 1.36C15.07 0.82 14.71 0.3 14.17 0.2ZM20.18 6.25C20.37 6.53 20.68 6.67 21 6.67C21.2 6.67 21.4 6.61 21.58 6.49C22.03 6.17 22.14 5.55 21.82 5.1C21.02 3.97 20.04 2.99 18.91 2.19C18.46 1.87 17.83 1.98 17.52 2.43C17.2 2.88 17.31 3.51 17.76 3.82C18.71 4.49 19.52 5.3 20.19 6.25H20.18ZM23.8 9.83C23.7 9.29 23.18 8.92 22.64 9.03C22.1 9.13 21.74 9.65 21.84 10.19C21.95 10.78 22 11.39 22 12C22 12.61 21.95 13.22 21.84 13.81C21.74 14.35 22.1 14.87 22.64 14.97C22.7 14.98 22.76 14.99 22.82 14.99C23.29 14.99 23.71 14.65 23.8 14.17C23.93 13.46 24 12.73 24 12C24 11.27 23.93 10.54 23.8 9.83Z" fill="#A6AAAA"/>
</g>
<defs>
<clipPath id="clip0_108_5428">
<rect width="24" height="24" fill="white"/>
</clipPath>
</defs>
</svg>
