<svg width="16" height="16" viewBox="0 0 16 16" fill="none" xmlns="http://www.w3.org/2000/svg">
<g clip-path="url(#clip0_184_3908)">
<path d="M14.668 2.276V6.66667C14.668 7.03467 14.9667 7.33333 15.3347 7.33333C15.7027 7.33333 16.0013 7.03467 16.0013 6.66667V2C16.0013 0.897334 15.104 0 14.0013 0H9.33467C8.96667 0 8.668 0.298667 8.668 0.666667C8.668 1.03467 8.96667 1.33333 9.33467 1.33333H13.7253L5.53 9.52867C5.26933 9.78934 5.26933 10.2107 5.53 10.4713C5.66 10.6013 5.83067 10.6667 6.00133 10.6667C6.172 10.6667 6.34267 10.6013 6.47267 10.4713L14.668 2.276ZM6.668 2.66667C7.43 2.66667 8.17733 2.794 8.89 3.046C9.23734 3.16867 9.41867 3.54933 9.296 3.89667C9.19934 4.17 8.942 4.34133 8.66733 4.34133C8.594 4.34133 8.51867 4.32867 8.44533 4.30267C7.876 4.10133 7.278 3.99933 6.66733 3.99933C3.72667 3.99933 1.334 6.392 1.334 9.33267C1.334 12.2733 3.72667 14.666 6.66733 14.666C9.608 14.666 12.0007 12.2733 12.0007 9.33267C12.0007 8.72267 11.8987 8.12467 11.6973 7.55467C11.5747 7.20733 11.7567 6.82667 12.1033 6.704C12.452 6.58067 12.832 6.76267 12.954 7.11C13.206 7.82267 13.3333 8.57 13.3333 9.332C13.3333 13.008 10.3427 15.9987 6.66667 15.9987C2.99067 15.9987 0 13.008 0 9.332C0 5.656 2.992 2.66667 6.668 2.66667Z" fill="#626465"/>
</g>
<defs>
<clipPath id="clip0_184_3908">
<rect width="16" height="16" fill="white"/>
</clipPath>
</defs>
</svg>
