<svg width="16" height="16" viewBox="0 0 16 16" fill="none" xmlns="http://www.w3.org/2000/svg">
<g clip-path="url(#clip0_108_5969)">
<path d="M12.6667 16H3.33333C1.49533 16 0 14.5047 0 12.6667V6.48268C0 5.37268 0.549333 4.33934 1.46933 3.71934L6.13533 0.570009C7.268 -0.193991 8.732 -0.193991 9.86467 0.570009L14.5313 3.71934C15.4507 4.33934 16 5.37201 16 6.48268V12.6667C16 14.5047 14.5047 16 12.6667 16ZM8 1.33134C7.61067 1.33134 7.22133 1.44601 6.88133 1.67601L2.21467 4.82468C1.66267 5.19668 1.33333 5.81601 1.33333 6.48201V12.666C1.33333 13.7687 2.23067 14.666 3.33333 14.666H12.6667C13.7693 14.666 14.6667 13.7687 14.6667 12.666V6.48268C14.6667 5.81668 14.3373 5.19668 13.786 4.82534L9.11867 1.67601C8.77867 1.44601 8.38933 1.33134 8 1.33134Z" fill="#818384"/>
</g>
<defs>
<clipPath id="clip0_108_5969">
<rect width="16" height="16" fill="white"/>
</clipPath>
</defs>
</svg>
