<svg width="16" height="17" viewBox="0 0 16 17" fill="none" xmlns="http://www.w3.org/2000/svg">
<g clip-path="url(#clip0_135_3639)">
<path d="M6 0.5H3.33333C2.44928 0.5 1.60143 0.851189 0.976311 1.47631C0.351189 2.10143 0 2.94928 0 3.83333L0 13.1667C0 13.6044 0.0862192 14.0379 0.253735 14.4423C0.421251 14.8467 0.666782 15.2142 0.976311 15.5237C1.60143 16.1488 2.44928 16.5 3.33333 16.5H9.33333V3.83333C9.33333 3.39559 9.24712 2.96214 9.0796 2.55772C8.91208 2.1533 8.66655 1.78584 8.35702 1.47631C8.04749 1.16678 7.68003 0.921251 7.27561 0.753735C6.87119 0.586219 6.43774 0.5 6 0.5ZM3.33333 13.1667H2.66667C2.48986 13.1667 2.32029 13.0964 2.19526 12.9714C2.07024 12.8464 2 12.6768 2 12.5C2 12.3232 2.07024 12.1536 2.19526 12.0286C2.32029 11.9036 2.48986 11.8333 2.66667 11.8333H3.33333C3.51014 11.8333 3.67971 11.9036 3.80474 12.0286C3.92976 12.1536 4 12.3232 4 12.5C4 12.6768 3.92976 12.8464 3.80474 12.9714C3.67971 13.0964 3.51014 13.1667 3.33333 13.1667ZM3.33333 10.5H2.66667C2.48986 10.5 2.32029 10.4298 2.19526 10.3047C2.07024 10.1797 2 10.0101 2 9.83333C2 9.65652 2.07024 9.48695 2.19526 9.36193C2.32029 9.23691 2.48986 9.16667 2.66667 9.16667H3.33333C3.51014 9.16667 3.67971 9.23691 3.80474 9.36193C3.92976 9.48695 4 9.65652 4 9.83333C4 10.0101 3.92976 10.1797 3.80474 10.3047C3.67971 10.4298 3.51014 10.5 3.33333 10.5ZM3.33333 7.83333H2.66667C2.48986 7.83333 2.32029 7.7631 2.19526 7.63807C2.07024 7.51305 2 7.34348 2 7.16667C2 6.98986 2.07024 6.82029 2.19526 6.69526C2.32029 6.57024 2.48986 6.5 2.66667 6.5H3.33333C3.51014 6.5 3.67971 6.57024 3.80474 6.69526C3.92976 6.82029 4 6.98986 4 7.16667C4 7.34348 3.92976 7.51305 3.80474 7.63807C3.67971 7.7631 3.51014 7.83333 3.33333 7.83333ZM3.33333 5.16667H2.66667C2.48986 5.16667 2.32029 5.09643 2.19526 4.9714C2.07024 4.84638 2 4.67681 2 4.5C2 4.32319 2.07024 4.15362 2.19526 4.0286C2.32029 3.90357 2.48986 3.83333 2.66667 3.83333H3.33333C3.51014 3.83333 3.67971 3.90357 3.80474 4.0286C3.92976 4.15362 4 4.32319 4 4.5C4 4.67681 3.92976 4.84638 3.80474 4.9714C3.67971 5.09643 3.51014 5.16667 3.33333 5.16667ZM6.66667 13.1667H6C5.82319 13.1667 5.65362 13.0964 5.5286 12.9714C5.40357 12.8464 5.33333 12.6768 5.33333 12.5C5.33333 12.3232 5.40357 12.1536 5.5286 12.0286C5.65362 11.9036 5.82319 11.8333 6 11.8333H6.66667C6.84348 11.8333 7.01305 11.9036 7.13807 12.0286C7.2631 12.1536 7.33333 12.3232 7.33333 12.5C7.33333 12.6768 7.2631 12.8464 7.13807 12.9714C7.01305 13.0964 6.84348 13.1667 6.66667 13.1667ZM6.66667 10.5H6C5.82319 10.5 5.65362 10.4298 5.5286 10.3047C5.40357 10.1797 5.33333 10.0101 5.33333 9.83333C5.33333 9.65652 5.40357 9.48695 5.5286 9.36193C5.65362 9.23691 5.82319 9.16667 6 9.16667H6.66667C6.84348 9.16667 7.01305 9.23691 7.13807 9.36193C7.2631 9.48695 7.33333 9.65652 7.33333 9.83333C7.33333 10.0101 7.2631 10.1797 7.13807 10.3047C7.01305 10.4298 6.84348 10.5 6.66667 10.5ZM6.66667 7.83333H6C5.82319 7.83333 5.65362 7.7631 5.5286 7.63807C5.40357 7.51305 5.33333 7.34348 5.33333 7.16667C5.33333 6.98986 5.40357 6.82029 5.5286 6.69526C5.65362 6.57024 5.82319 6.5 6 6.5H6.66667C6.84348 6.5 7.01305 6.57024 7.13807 6.69526C7.2631 6.82029 7.33333 6.98986 7.33333 7.16667C7.33333 7.34348 7.2631 7.51305 7.13807 7.63807C7.01305 7.7631 6.84348 7.83333 6.66667 7.83333ZM6.66667 5.16667H6C5.82319 5.16667 5.65362 5.09643 5.5286 4.9714C5.40357 4.84638 5.33333 4.67681 5.33333 4.5C5.33333 4.32319 5.40357 4.15362 5.5286 4.0286C5.65362 3.90357 5.82319 3.83333 6 3.83333H6.66667C6.84348 3.83333 7.01305 3.90357 7.13807 4.0286C7.2631 4.15362 7.33333 4.32319 7.33333 4.5C7.33333 4.67681 7.2631 4.84638 7.13807 4.9714C7.01305 5.09643 6.84348 5.16667 6.66667 5.16667ZM12.6667 3.83333H10.6667V16.5H12.6667C13.5504 16.4989 14.3976 16.1474 15.0225 15.5225C15.6474 14.8976 15.9989 14.0504 16 13.1667V7.16667C15.9989 6.28294 15.6474 5.43571 15.0225 4.81081C14.3976 4.18592 13.5504 3.83439 12.6667 3.83333ZM13.3333 13.1667C13.2015 13.1667 13.0726 13.1276 12.963 13.0543C12.8533 12.9811 12.7679 12.8769 12.7174 12.7551C12.667 12.6333 12.6538 12.4993 12.6795 12.3699C12.7052 12.2406 12.7687 12.1218 12.8619 12.0286C12.9552 11.9354 13.074 11.8719 13.2033 11.8461C13.3326 11.8204 13.4666 11.8336 13.5885 11.8841C13.7103 11.9345 13.8144 12.02 13.8876 12.1296C13.9609 12.2393 14 12.3681 14 12.5C14 12.6768 13.9298 12.8464 13.8047 12.9714C13.6797 13.0964 13.5101 13.1667 13.3333 13.1667ZM13.3333 10.5C13.2015 10.5 13.0726 10.4609 12.963 10.3876C12.8533 10.3144 12.7679 10.2103 12.7174 10.0885C12.667 9.96664 12.6538 9.83259 12.6795 9.70327C12.7052 9.57395 12.7687 9.45516 12.8619 9.36193C12.9552 9.26869 13.074 9.2052 13.2033 9.17948C13.3326 9.15375 13.4666 9.16695 13.5885 9.21741C13.7103 9.26787 13.8144 9.35332 13.8876 9.46295C13.9609 9.57259 14 9.70148 14 9.83333C14 10.0101 13.9298 10.1797 13.8047 10.3047C13.6797 10.4298 13.5101 10.5 13.3333 10.5ZM13.3333 7.83333C13.2015 7.83333 13.0726 7.79423 12.963 7.72098C12.8533 7.64773 12.7679 7.54361 12.7174 7.42179C12.667 7.29997 12.6538 7.16593 12.6795 7.03661C12.7052 6.90729 12.7687 6.7885 12.8619 6.69526C12.9552 6.60203 13.074 6.53853 13.2033 6.51281C13.3326 6.48709 13.4666 6.50029 13.5885 6.55075C13.7103 6.60121 13.8144 6.68665 13.8876 6.79629C13.9609 6.90592 14 7.03481 14 7.16667C14 7.34348 13.9298 7.51305 13.8047 7.63807C13.6797 7.7631 13.5101 7.83333 13.3333 7.83333Z" fill="white"/>
</g>
<defs>
<clipPath id="clip0_135_3639">
<rect width="16" height="16" fill="white" transform="translate(0 0.5)"/>
</clipPath>
</defs>
</svg>
