<svg width="16" height="16" viewBox="0 0 16 16" fill="none" xmlns="http://www.w3.org/2000/svg">
<g clip-path="url(#clip0_108_5972)">
<path d="M15.9913 1.54867C16.0027 1.116 15.8233 0.697334 15.5 0.400667C15.1733 0.102 14.7353 -0.0413331 14.2987 0.0100003C10.528 0.446 8.79467 2.96667 8 5.05667C7.20533 2.96667 5.472 0.446 1.70133 0.0100003C1.268 -0.0406664 0.826666 0.102 0.499999 0.400667C0.176666 0.697334 -0.00266722 1.116 0.00866611 1.54867C0.0666661 3.72867 0.779333 5.46 2.128 6.69533C3.866 8.28733 6.18267 8.604 7.334 8.65733V15.3333C7.334 15.7013 7.632 16 8.00067 16C8.36933 16 8.66733 15.7013 8.66733 15.3333V8.65733C9.81867 8.604 12.1353 8.28733 13.8733 6.69533C15.2213 5.46 15.9347 3.72867 15.9927 1.54867H15.9913Z" fill="white"/>
</g>
<defs>
<clipPath id="clip0_108_5972">
<rect width="16" height="16" fill="white"/>
</clipPath>
</defs>
</svg>
