<svg width="16" height="16" viewBox="0 0 16 16" fill="none" xmlns="http://www.w3.org/2000/svg">
<g clip-path="url(#clip0_184_979)">
<path d="M13.3334 5.33311C13.3342 4.30655 13.0387 3.30157 12.4824 2.4388C11.9261 1.57603 11.1327 0.892144 10.1973 0.469228C9.26187 0.0463119 8.22429 -0.0976601 7.20907 0.0545934C6.19386 0.206847 5.24417 0.648856 4.47398 1.32756C3.70379 2.00627 3.14584 2.89283 2.86711 3.88083C2.58837 4.86883 2.6007 5.91628 2.90261 6.89744C3.20451 7.87861 3.78317 8.7518 4.56912 9.41219C5.35506 10.0726 6.3149 10.4921 7.33341 10.6204V12.6664H6.00008C5.82327 12.6664 5.6537 12.7367 5.52868 12.8617C5.40365 12.9867 5.33341 13.1563 5.33341 13.3331C5.33341 13.5099 5.40365 13.6795 5.52868 13.8045C5.6537 13.9295 5.82327 13.9998 6.00008 13.9998H7.33341V15.3331C7.33341 15.5099 7.40365 15.6795 7.52868 15.8045C7.6537 15.9295 7.82327 15.9998 8.00008 15.9998C8.17689 15.9998 8.34646 15.9295 8.47148 15.8045C8.59651 15.6795 8.66675 15.5099 8.66675 15.3331V13.9998H10.0001C10.1769 13.9998 10.3465 13.9295 10.4715 13.8045C10.5965 13.6795 10.6667 13.5099 10.6667 13.3331C10.6667 13.1563 10.5965 12.9867 10.4715 12.8617C10.3465 12.7367 10.1769 12.6664 10.0001 12.6664H8.66675V10.6204C9.95441 10.4571 11.1385 9.83016 11.9974 8.857C12.8563 7.88384 13.3313 6.6311 13.3334 5.33311Z" fill="white"/>
</g>
<defs>
<clipPath id="clip0_184_979">
<rect width="16" height="16" fill="white"/>
</clipPath>
</defs>
</svg>
