<svg width="16" height="17" viewBox="0 0 16 17" fill="none" xmlns="http://www.w3.org/2000/svg">
<path opacity="0.58" d="M16 0.5H0V16.5H16V0.5Z" fill="white"/>
<path d="M8.13333 4.413C8.08666 4.413 8.04 4.41301 8 4.41968V1.83967C8.04667 1.833 8.08666 1.83301 8.13333 1.83301C9.64 1.83301 10.9333 2.29301 11.9933 3.07301C12.3267 3.31301 12.3533 3.79968 12.06 4.08634L11.1333 4.99301C10.9067 5.21301 10.56 5.25301 10.3 5.07301C9.8 4.72634 9.08666 4.413 8.13333 4.413Z" fill="#131313"/>
<path d="M14.5333 8.64712C14.5333 10.6804 13.8067 12.3871 12.5467 13.5538C11.4467 14.5738 9.93333 15.1671 8.13333 15.1671C8.08666 15.1671 8.04667 15.1671 8 15.1605V12.5804C8.04667 12.5871 8.08666 12.5871 8.13333 12.5871C9.12666 12.5871 9.88 12.3138 10.4467 11.9205C11.3333 11.3005 11.7333 10.3738 11.8067 9.76045H8.8C8.43333 9.76045 8.13333 9.46045 8.13333 9.09378V7.95378C8.13333 7.58711 8.43333 7.28711 8.8 7.28711H13.8333C14.1733 7.28711 14.46 7.54045 14.4933 7.88045C14.52 8.11379 14.5333 8.36045 14.5333 8.64712Z" fill="#292D32"/>
<path opacity="0.4" d="M4.33347 7.17985C4.20013 7.59318 4.12013 8.03985 4.12013 8.49985C4.12013 8.95985 4.20013 9.39984 4.34013 9.81984C4.86013 11.3865 6.30013 12.5265 8.00013 12.5798V15.1599C5.45347 15.1132 3.26013 13.6332 2.1868 11.4932H2.18013C1.7268 10.5865 1.4668 9.57318 1.4668 8.49985C1.4668 7.42651 1.7268 6.41318 2.18013 5.50651C3.25346 3.36651 5.4468 1.88651 8.00013 1.83984V4.41985C6.4268 4.46652 5.0868 5.43984 4.47346 6.81984C4.42013 6.93984 4.37347 7.05985 4.33347 7.17985Z" fill="#292D32"/>
</svg>
