<svg width="24" height="24" viewBox="0 0 24 24" fill="none" xmlns="http://www.w3.org/2000/svg">
<rect x="0.333333" y="0.333333" width="23.3333" height="23.3333" rx="11.6667" fill="#FDFDFE"/>
<rect x="0.333333" y="0.333333" width="23.3333" height="23.3333" rx="11.6667" stroke="#17A24A" stroke-width="0.666667"/>
<g clip-path="url(#clip0_108_5528)">
<path d="M11.5587 7.8122L11.5556 14.6735C11.5556 14.7914 11.6025 14.9045 11.6858 14.9878C11.7692 15.0711 11.8822 15.118 12.0001 15.118C12.118 15.118 12.231 15.0711 12.3144 14.9878C12.3977 14.9045 12.4445 14.7914 12.4445 14.6735L12.4476 7.81975L13.7419 9.11442C13.8252 9.19774 13.9382 9.24455 14.0561 9.24455C14.1739 9.24455 14.287 9.19774 14.3703 9.11442C14.4536 9.03107 14.5004 8.91805 14.5004 8.8002C14.5004 8.68235 14.4536 8.56932 14.3703 8.48598L12.9432 7.05709C12.8194 6.93318 12.6723 6.8349 12.5105 6.76784C12.3487 6.70078 12.1752 6.66626 12.0001 6.66626C11.8249 6.66626 11.6515 6.70078 11.4896 6.76784C11.3278 6.8349 11.1808 6.93318 11.057 7.05709L9.62986 8.48464C9.54654 8.56799 9.49973 8.68101 9.49973 8.79886C9.49973 8.91671 9.54654 9.02974 9.62986 9.11309C9.7132 9.19641 9.82623 9.24321 9.94408 9.24321C10.0619 9.24321 10.175 9.19641 10.2583 9.11309L11.5587 7.8122Z" fill="#17A24A"/>
<path d="M16.4445 14.222V15.9998C16.4445 16.1176 16.3977 16.2307 16.3144 16.314C16.231 16.3974 16.118 16.4442 16.0001 16.4442H8.00008C7.88221 16.4442 7.76916 16.3974 7.68581 16.314C7.60246 16.2307 7.55564 16.1176 7.55564 15.9998V14.222C7.55564 14.1041 7.50881 13.9911 7.42546 13.9077C7.34211 13.8244 7.22907 13.7775 7.11119 13.7775C6.99332 13.7775 6.88027 13.8244 6.79692 13.9077C6.71357 13.9911 6.66675 14.1041 6.66675 14.222V15.9998C6.66675 16.3534 6.80722 16.6925 7.05727 16.9426C7.30732 17.1926 7.64646 17.3331 8.00008 17.3331H16.0001C16.3537 17.3331 16.6928 17.1926 16.9429 16.9426C17.1929 16.6925 17.3334 16.3534 17.3334 15.9998V14.222C17.3334 14.1041 17.2866 13.9911 17.2032 13.9077C17.1199 13.8244 17.0068 13.7775 16.889 13.7775C16.7711 13.7775 16.658 13.8244 16.5747 13.9077C16.4914 13.9911 16.4445 14.1041 16.4445 14.222Z" fill="#17A24A"/>
</g>
<defs>
<clipPath id="clip0_108_5528">
<rect width="10.6667" height="10.6667" fill="white" transform="translate(6.66675 6.66663)"/>
</clipPath>
</defs>
</svg>
