<svg width="8" height="8" viewBox="0 0 8 8" fill="none" xmlns="http://www.w3.org/2000/svg">
<path d="M7.94628 2.86633C7.83361 2.52467 7.49828 2.12567 6.92395 2.12567H5.46795L5.02561 0.746333C4.84861 0.195333 4.36328 0 4.00128 0C3.63928 0 3.15395 0.195667 2.97728 0.746667L2.53495 2.12567H1.07795C0.50028 2.12567 0.16628 2.52533 0.0566138 2.86533C-0.0567195 3.208 -0.0233862 3.729 0.443281 4.06933L1.63028 4.937L1.17961 6.33167C1.00128 6.88233 1.28028 7.32433 1.57295 7.53433C1.73528 7.65167 1.96295 7.74267 2.21261 7.74267C2.41495 7.74267 2.63195 7.683 2.83995 7.529L4.00095 6.67567L5.16128 7.52867C5.54128 7.80767 6.06595 7.79867 6.42528 7.53667C6.72028 7.326 7.00095 6.884 6.82195 6.33167L6.37128 4.937L7.55795 4.06967C8.02295 3.73067 8.05761 3.21033 7.94595 2.86633H7.94628ZM7.16528 3.53133L5.78361 4.541C5.66728 4.62567 5.61895 4.77567 5.66328 4.91267L6.18795 6.537C6.27561 6.80767 6.07828 6.96533 6.03528 6.996C5.89995 7.09467 5.70861 7.10333 5.55595 6.99167L4.19795 5.99333C4.13928 5.95033 4.06995 5.92867 4.00061 5.92867V0.666667C4.09061 0.666667 4.30795 0.694333 4.39028 0.950333L4.90695 2.561C4.95128 2.699 5.07961 2.79233 5.22428 2.79233H6.92361C7.19095 2.79233 7.28461 2.99 7.31228 3.07367C7.33995 3.15867 7.38095 3.37367 7.16528 3.53133Z" fill="white"/>
</svg>
