<svg width="12" height="12" viewBox="0 0 12 12" fill="none" xmlns="http://www.w3.org/2000/svg">
<path opacity="0.4" d="M6 11C8.76142 11 11 8.76142 11 6C11 3.23858 8.76142 1 6 1C3.23858 1 1 3.23858 1 6C1 8.76142 3.23858 11 6 11Z" fill="#A6AAAA"/>
<path d="M5.28997 7.78999C5.18997 7.78999 5.09497 7.74999 5.02497 7.67999L3.60997 6.26499C3.46497 6.11999 3.46497 5.87999 3.60997 5.73499C3.75497 5.58999 3.99497 5.58999 4.13997 5.73499L5.28997 6.88499L7.85997 4.31499C8.00497 4.16999 8.24497 4.16999 8.38997 4.31499C8.53497 4.45999 8.53497 4.69999 8.38997 4.84499L5.55497 7.67999C5.48497 7.74999 5.38997 7.78999 5.28997 7.78999Z" fill="#A6AAAA"/>
</svg>
