<svg width="14" height="16" viewBox="0 0 14 16" fill="none" xmlns="http://www.w3.org/2000/svg">
<path d="M6.66683 4.33333C6.66683 3.41267 7.41283 2.66667 8.3335 2.66667C9.25416 2.66667 10.0002 3.41267 10.0002 4.33333C10.0002 5.254 9.25416 6 8.3335 6C7.41283 6 6.66683 5.254 6.66683 4.33333ZM5.60283 9.23667C5.9175 9.428 6.32816 9.32733 6.51883 9.01267C6.8915 8.398 7.6035 8 8.3335 8C9.0635 8 9.7755 8.39733 10.1482 9.01267C10.2735 9.21933 10.4942 9.33333 10.7188 9.33333C10.8368 9.33333 10.9555 9.302 11.0642 9.23667C11.3788 9.046 11.4795 8.636 11.2888 8.32067C10.6695 7.3 9.5375 6.66667 8.3335 6.66667C7.1295 6.66667 5.9975 7.30067 5.37816 8.32067C5.1875 8.636 5.28816 9.04533 5.60283 9.23667ZM13.6668 3.33333V12.6667C13.6668 14.5047 12.1715 16 10.3335 16H3.00016C1.5295 16 0.333496 14.804 0.333496 13.3333V3.33333C0.333496 1.49533 1.82883 0 3.66683 0H10.3335C12.1715 0 13.6668 1.49533 13.6668 3.33333ZM10.3335 1.33333H4.3335V10.6667H12.3335V3.33333C12.3335 2.23067 11.4362 1.33333 10.3335 1.33333ZM1.66683 3.33333V11.0373C2.06083 10.808 2.51216 10.6667 3.00016 10.6667V1.456C2.22616 1.732 1.66683 2.46533 1.66683 3.33333ZM12.3335 12.6667V12H3.00016C2.26483 12 1.66683 12.598 1.66683 13.3333C1.66683 14.0687 2.26483 14.6667 3.00016 14.6667H10.3335C11.4362 14.6667 12.3335 13.7693 12.3335 12.6667Z" fill="#333333"/>
</svg>
