<svg width="16" height="16" viewBox="0 0 16 16" fill="none" xmlns="http://www.w3.org/2000/svg">
<path d="M15.6387 1.86469C15.2213 1.76535 14.5433 1.63002 13.76 1.52069C13.2193 0.992687 12.48 0.666687 11.666 0.666687C10.852 0.666687 10.1133 0.992687 9.572 1.52069C8.78867 1.63002 8.11133 1.76535 7.69333 1.86469C7.37667 1.94002 7.234 2.30335 7.406 2.57935C7.67133 3.00602 8.14867 3.31402 8.674 3.44735C8.66867 3.51935 8.666 3.59269 8.666 3.66602V4.05069C8.33467 4.11869 8.024 4.25269 7.74867 4.44602C7.33533 4.15735 6.84467 3.99935 6.33267 3.99935C5.65067 3.99935 5.002 4.28535 4.53667 4.77135C4.30667 4.70202 4.06933 4.66602 3.83267 4.66602C2.46733 4.66602 1.35333 5.76669 1.33267 7.12735C0.525999 7.55202 -0.000667572 8.39269 -0.000667572 9.33269C-0.000667572 10.2727 0.526666 11.114 1.33267 11.538C1.35067 12.728 2.20467 13.7194 3.33267 13.9494V14.666C3.33267 15.4014 3.93067 15.9994 4.666 15.9994C5.40133 15.9994 5.99933 15.4014 5.99933 14.666V14.6207C6.576 14.7 7.17667 14.5907 7.666 14.276C8.06133 14.53 8.51867 14.666 8.99933 14.666C9.348 14.666 9.688 14.5914 9.99933 14.4534V14.666C9.99933 15.4014 10.5973 15.9994 11.3327 15.9994C12.068 15.9994 12.666 15.4014 12.666 14.666V13.71C13.448 13.296 13.9847 12.4787 13.9993 11.5374C14.5233 11.2614 14.94 10.8034 15.1607 10.244C15.2953 9.90135 15.1273 9.51402 14.7847 9.37935C14.4413 9.24602 14.0553 9.41402 13.92 9.75535C13.784 10.102 13.4853 10.3634 13.1227 10.4567C12.774 10.546 12.5593 10.8947 12.6367 11.2467C12.6567 11.338 12.6667 11.4207 12.6667 11.5C12.6667 12.1434 12.1433 12.6667 11.5 12.6667C11.3007 12.6667 11.1047 12.6114 10.9173 12.5027C10.7647 12.4127 10.5827 12.3887 10.41 12.4334C10.2387 12.4787 10.0927 12.5907 10.004 12.7447C9.628 13.3967 8.67133 13.514 8.15467 12.9587C7.902 12.6867 7.43067 12.6867 7.178 12.9587C6.814 13.3507 6.23067 13.4074 5.78667 13.178C5.48 12.9674 5.39867 12.8654 5.32867 12.7447C5.24 12.5914 5.09333 12.4794 4.92267 12.4334C4.75067 12.388 4.56867 12.412 4.41533 12.5027C4.22867 12.6114 4.03267 12.6667 3.83267 12.6667C3.18933 12.6667 2.666 12.1434 2.666 11.5C2.666 11.4207 2.676 11.338 2.696 11.2467C2.77333 10.8954 2.55867 10.546 2.21 10.4567C1.69333 10.3247 1.33267 9.86202 1.33267 9.33269C1.33267 8.80335 1.694 8.34135 2.21067 8.20869C2.55867 8.11935 2.77333 7.77002 2.696 7.41869C2.676 7.32802 2.666 7.24535 2.666 7.16602C2.666 6.52269 3.18933 5.99935 3.83267 5.99935C4.032 5.99935 4.228 6.05469 4.41533 6.16402C4.56867 6.25335 4.752 6.27869 4.922 6.23269C5.09333 6.18735 5.24 6.07535 5.32867 5.92202C5.54133 5.55335 5.91667 5.33335 6.33267 5.33335C6.67867 5.33335 7.006 5.49269 7.232 5.77002C7.48533 6.08202 8.01333 6.08069 8.26667 5.77002C8.37867 5.63202 8.51467 5.52402 8.666 5.44935V6.17935C8.666 7.71335 9.81533 8.66669 11.666 8.66669C13.5167 8.66669 14.666 7.71335 14.666 6.17935V3.66669C14.666 3.59335 14.6633 3.52002 14.658 3.44802C15.1827 3.31402 15.66 3.00602 15.926 2.58002C16.098 2.30402 15.9553 1.94002 15.6387 1.86535V1.86469ZM13.3333 6.17935C13.3333 6.94469 12.7727 7.33335 11.6667 7.33335C10.5607 7.33335 10 6.94469 10 6.17935V3.66669C10 2.74802 10.748 2.00002 11.6667 2.00002C12.5853 2.00002 13.3333 2.74802 13.3333 3.66669V6.17935Z" fill="#818384"/>
</svg>
