<svg width="16" height="15" viewBox="0 0 16 15" fill="none" xmlns="http://www.w3.org/2000/svg">
<path d="M2.66667 4C2.40383 4.00069 2.14347 3.94925 1.90065 3.84866C1.65783 3.74808 1.43736 3.60034 1.252 3.414L0.222667 2.498C0.0905887 2.38024 0.0106989 2.21484 0.000571933 2.03818C-0.00955503 1.86152 0.0509104 1.68807 0.168667 1.556C0.286423 1.42392 0.451823 1.34403 0.628483 1.3339C0.805142 1.32377 0.978589 1.38424 1.11067 1.502L2.16733 2.44466C2.22782 2.51259 2.30158 2.56743 2.38405 2.60579C2.46653 2.64415 2.55598 2.66523 2.6469 2.66773C2.73783 2.67022 2.82831 2.65409 2.91276 2.62031C2.99722 2.58654 3.07387 2.53584 3.138 2.47133L5.54067 0.183996C5.66986 0.068976 5.83871 0.00867518 6.01154 0.0158298C6.18437 0.0229845 6.34765 0.0970345 6.46689 0.222339C6.58614 0.347644 6.65202 0.514392 6.65061 0.687363C6.64919 0.860335 6.58061 1.02599 6.45933 1.14933L4.06667 3.42533C3.88251 3.60841 3.66408 3.75339 3.42386 3.852C3.18364 3.95061 2.92634 4.0009 2.66667 4ZM16 2.66666C16 2.48985 15.9298 2.32028 15.8047 2.19526C15.6797 2.07023 15.5101 2 15.3333 2H8.66667C8.48986 2 8.32029 2.07023 8.19526 2.19526C8.07024 2.32028 8 2.48985 8 2.66666C8 2.84347 8.07024 3.01304 8.19526 3.13807C8.32029 3.26309 8.48986 3.33333 8.66667 3.33333H15.3333C15.5101 3.33333 15.6797 3.26309 15.8047 3.13807C15.9298 3.01304 16 2.84347 16 2.66666ZM4.06667 8.75866L6.45933 6.48266C6.52611 6.42321 6.58025 6.35093 6.61853 6.27013C6.65681 6.18932 6.67844 6.10164 6.68214 6.01231C6.68583 5.92297 6.67152 5.83381 6.64006 5.75011C6.60859 5.66642 6.56061 5.58992 6.49897 5.52515C6.43733 5.46038 6.3633 5.40867 6.28126 5.3731C6.19923 5.33752 6.11088 5.31882 6.02148 5.31809C5.93207 5.31736 5.84343 5.33462 5.76083 5.36885C5.67823 5.40308 5.60335 5.45357 5.54067 5.51733L3.14067 7.80466C3.01376 7.92602 2.84493 7.99374 2.66933 7.99374C2.49374 7.99374 2.32491 7.92602 2.198 7.80466L1.138 6.748C1.01227 6.62656 0.843864 6.55936 0.669066 6.56088C0.494268 6.5624 0.32706 6.63251 0.203454 6.75612C0.0798487 6.87972 0.00973611 7.04693 0.00821716 7.22173C0.00669821 7.39653 0.0738945 7.56493 0.195333 7.69066L1.252 8.74733C1.62512 9.12053 2.13061 9.33114 2.65833 9.33326C3.18605 9.33539 3.69323 9.12885 4.06933 8.75866H4.06667ZM16 8C16 7.82319 15.9298 7.65362 15.8047 7.52859C15.6797 7.40357 15.5101 7.33333 15.3333 7.33333H8.66667C8.48986 7.33333 8.32029 7.40357 8.19526 7.52859C8.07024 7.65362 8 7.82319 8 8C8 8.17681 8.07024 8.34638 8.19526 8.4714C8.32029 8.59643 8.48986 8.66666 8.66667 8.66666H15.3333C15.5101 8.66666 15.6797 8.59643 15.8047 8.4714C15.9298 8.34638 16 8.17681 16 8ZM4.06667 14.092L6.45667 11.816C6.52345 11.7565 6.57759 11.6843 6.61586 11.6035C6.65414 11.5227 6.67577 11.435 6.67947 11.3456C6.68317 11.2563 6.66886 11.1671 6.63739 11.0834C6.60592 10.9998 6.55794 10.9232 6.49631 10.8585C6.43467 10.7937 6.36063 10.742 6.2786 10.7064C6.19657 10.6709 6.10822 10.6522 6.01881 10.6514C5.9294 10.6507 5.84076 10.668 5.75816 10.7022C5.67556 10.7364 5.60069 10.7869 5.538 10.8507L3.138 13.138C3.07387 13.2025 2.99722 13.2532 2.91276 13.287C2.82831 13.3208 2.73783 13.3369 2.6469 13.3344C2.55598 13.3319 2.46653 13.3108 2.38405 13.2725C2.30158 13.2341 2.22782 13.1793 2.16733 13.1113L1.11067 12.1687C0.978589 12.0509 0.805142 11.9904 0.628483 12.0006C0.451823 12.0107 0.286423 12.0906 0.168667 12.2227C0.0509104 12.3547 -0.00955503 12.5282 0.000571933 12.7048C0.0106989 12.8815 0.0905887 13.0469 0.222667 13.1647L1.252 14.0807C1.62512 14.4539 2.13061 14.6645 2.65833 14.6666C3.18605 14.6687 3.69323 14.4622 4.06933 14.092H4.06667ZM16 13.3333C16 13.1565 15.9298 12.987 15.8047 12.8619C15.6797 12.7369 15.5101 12.6667 15.3333 12.6667H8.66667C8.48986 12.6667 8.32029 12.7369 8.19526 12.8619C8.07024 12.987 8 13.1565 8 13.3333C8 13.5101 8.07024 13.6797 8.19526 13.8047C8.32029 13.9298 8.48986 14 8.66667 14H15.3333C15.5101 14 15.6797 13.9298 15.8047 13.8047C15.9298 13.6797 16 13.5101 16 13.3333Z" fill="#818384"/>
</svg>
